<?xml version="1.0" encoding="UTF-8"?> <svg xmlns="http://www.w3.org/2000/svg" width="121" height="28" viewBox="0 0 121 28" fill="none"><path d="M33.0618 0.00131726H21.9433V6.78813C21.9433 6.78813 23.3469 6.72 25.8276 8.77114C28.3083 10.8223 29.0298 13.2081 29.0298 13.2081V7.65114L40.6321 27.847H52V0.00131726H45.0356V18.5691L33.0618 0.00131726Z" fill="url(#paint0_linear_455_17994)"></path><path fill-rule="evenodd" clip-rule="evenodd" d="M17.7183 6.12127V0.00131726H5.13358C5.13358 0.00131726 -0.115717 -0.304802 0.00194901 8.41614C0.109293 16.3721 5.13358 17.1372 5.13358 17.1372L19.1845 17.4432C19.1845 17.4432 20.0397 17.9021 20.0397 19.5852C20.0397 21.574 19.1845 21.8802 19.1845 21.8802H7.82158H0.246313V27.6941H4.27831H21.2616C21.2616 27.6941 26.271 27.6941 26.271 18.8202C26.271 12.2411 22.239 11.3232 22.239 11.3232L7.82158 10.7112C7.82158 10.7112 6.47758 10.7112 6.47758 8.41626C6.47758 6.12127 7.82158 6.12127 7.82158 6.12127H17.7183Z" fill="url(#paint1_linear_455_17994)"></path><path d="M95.8053 27.6896H93.3186V18.0064H90.1238V15.9314H99.0001V18.0064H95.8053V27.6896Z" fill="#F09A3E"></path><path d="M89.1389 24.4286C89.1389 25.1202 88.9687 25.7241 88.6283 26.2401C88.288 26.7561 87.794 27.1568 87.1462 27.4422C86.5095 27.7167 85.73 27.8539 84.8078 27.8539C84.4015 27.8539 84.0008 27.8265 83.6056 27.7716C83.2213 27.7167 82.848 27.6398 82.4858 27.541C82.1344 27.4312 81.7996 27.2995 81.4812 27.1458V24.8238C82.0411 25.0653 82.6175 25.2904 83.2103 25.499C83.8142 25.6966 84.4125 25.7954 85.0054 25.7954C85.4116 25.7954 85.7355 25.7405 85.977 25.6307C86.2295 25.5209 86.4106 25.3727 86.5204 25.1861C86.6412 24.9995 86.7016 24.7854 86.7016 24.5438C86.7016 24.2474 86.5973 23.9949 86.3887 23.7863C86.1911 23.5777 85.9221 23.3856 85.5818 23.2099C85.2414 23.0233 84.8517 22.8257 84.4125 22.6171C84.1381 22.4853 83.8416 22.3316 83.5232 22.156C83.2049 21.9693 82.8975 21.7443 82.601 21.4808C82.3156 21.2063 82.0795 20.877 81.8929 20.4927C81.7063 20.1084 81.6129 19.6473 81.6129 19.1094C81.6129 18.4067 81.7721 17.8084 82.0905 17.3144C82.4199 16.8093 82.881 16.4251 83.4738 16.1616C84.0777 15.8981 84.7858 15.7664 85.5982 15.7664C86.213 15.7664 86.7949 15.8377 87.3438 15.9804C87.9037 16.1232 88.4856 16.3263 89.0895 16.5898L88.2825 18.533C87.7446 18.3134 87.2615 18.1432 86.8333 18.0225C86.4052 17.9017 85.966 17.8413 85.5159 17.8413C85.2085 17.8413 84.945 17.8907 84.7254 17.9895C84.5058 18.0884 84.3357 18.2256 84.2149 18.4013C84.1051 18.5769 84.0502 18.7855 84.0502 19.027C84.0502 19.3015 84.1326 19.5375 84.2972 19.7352C84.4619 19.9218 84.7089 20.103 85.0383 20.2786C85.3677 20.4543 85.7794 20.6629 86.2734 20.9044C86.8772 21.1898 87.3877 21.4863 87.8049 21.7937C88.2331 22.1011 88.5625 22.4634 88.793 22.8806C89.0236 23.2978 89.1389 23.8138 89.1389 24.4286Z" fill="#F09A3E"></path><path d="M79.7593 27.6896H72.991V15.9314H79.7593V17.9734H75.4776V20.5589H79.4629V22.601H75.4776V25.6311H79.7593V27.6896Z" fill="#F09A3E"></path><path d="M70.0188 27.6896H66.8569L61.7353 18.7968H61.6695C61.6804 19.0713 61.6914 19.3513 61.7024 19.6367C61.7134 19.9112 61.7243 20.1911 61.7353 20.4766C61.7573 20.7511 61.7738 21.031 61.7847 21.3165C61.7957 21.5909 61.8067 21.8709 61.8177 22.1563V27.6896H59.5945V15.9314H62.7399L67.845 24.7418H67.8944C67.8834 24.4674 67.8724 24.1984 67.8615 23.9349C67.8505 23.6604 67.8395 23.3914 67.8285 23.1279C67.8285 22.8535 67.823 22.5845 67.8121 22.321C67.8011 22.0465 67.7901 21.7721 67.7791 21.4976V15.9314H70.0188V27.6896Z" fill="#F09A3E"></path><path d="M107.784 5.0825L110.275 0.166992H113L109.038 7.45665V12.1046H106.53V7.54025L102.567 0.166992H105.309L107.784 5.0825Z" fill="white"></path><path d="M101.757 6.01878C101.757 7.35634 101.5 8.47654 100.987 9.37938C100.475 10.2822 99.7279 10.9622 98.747 11.4192C97.7773 11.8761 96.607 12.1046 95.236 12.1046H91.8586V0.166992H95.6038C96.8522 0.166992 97.9334 0.389918 98.8474 0.835769C99.7725 1.28162 100.486 1.93925 100.987 2.80866C101.5 3.66692 101.757 4.73696 101.757 6.01878ZM99.1316 6.08566C99.1316 5.20511 99.0034 4.4806 98.747 3.91214C98.4907 3.34368 98.1061 2.92569 97.5934 2.65818C97.0918 2.37953 96.4732 2.2402 95.7375 2.2402H94.3833V10.0147H95.47C96.7073 10.0147 97.6268 9.68591 98.2287 9.02828C98.8306 8.37065 99.1316 7.38978 99.1316 6.08566Z" fill="white"></path><path d="M88.935 7.89136C88.935 8.71618 88.7511 9.46298 88.3833 10.1318C88.0266 10.7894 87.4804 11.3133 86.7448 11.7034C86.0203 12.0824 85.1007 12.2718 83.9861 12.2718C82.4033 12.2718 81.1995 11.8706 80.3747 11.068C79.5499 10.2544 79.1375 9.18432 79.1375 7.85792V0.166992H81.6621V7.47337C81.6621 8.45424 81.8627 9.14531 82.264 9.54658C82.6652 9.94784 83.2616 10.1485 84.053 10.1485C84.6103 10.1485 85.0617 10.0537 85.4072 9.86425C85.7528 9.67476 86.0036 9.37938 86.1596 8.97812C86.3268 8.57685 86.4104 8.0697 86.4104 7.45665V0.166992H88.935V7.89136Z" fill="white"></path><path d="M74.1366 12.1046H71.612V2.27364H68.3684V0.166992H77.3802V2.27364H74.1366V12.1046Z" fill="white"></path><path d="M67.369 8.79441C67.369 9.49662 67.1962 10.1097 66.8507 10.6335C66.5052 11.1574 66.0036 11.5643 65.346 11.8541C64.6995 12.1327 63.9081 12.272 62.9718 12.272C62.5594 12.272 62.1526 12.2442 61.7513 12.1884C61.3612 12.1327 60.9822 12.0547 60.6144 11.9544C60.2577 11.8429 59.9177 11.7092 59.5945 11.5531V9.19567C60.1629 9.44089 60.7481 9.66939 61.35 9.88117C61.9631 10.0818 62.5705 10.1821 63.1724 10.1821C63.5848 10.1821 63.9137 10.1264 64.1589 10.0149C64.4152 9.90346 64.5992 9.75299 64.7106 9.5635C64.8332 9.37401 64.8945 9.15666 64.8945 8.91144C64.8945 8.61049 64.7886 8.35413 64.5769 8.14235C64.3762 7.93057 64.1031 7.73551 63.7576 7.55717C63.4121 7.36768 63.0164 7.16705 62.5705 6.95527C62.2919 6.82152 61.9909 6.66547 61.6677 6.48713C61.3444 6.29764 61.0324 6.06914 60.7314 5.80163C60.4416 5.52298 60.202 5.18859 60.0125 4.79847C59.823 4.40835 59.7282 3.94021 59.7282 3.39404C59.7282 2.68068 59.8899 2.07321 60.2131 1.57162C60.5475 1.0589 61.0156 0.668776 61.6175 0.401266C62.2306 0.133755 62.9495 0 63.7743 0C64.3985 0 64.9893 0.0724508 65.5466 0.217352C66.115 0.362254 66.7058 0.56846 67.3188 0.83597L66.4996 2.80886C65.9534 2.58593 65.463 2.41317 65.0283 2.29056C64.5936 2.16795 64.1477 2.10664 63.6907 2.10664C63.3786 2.10664 63.1111 2.1568 62.8882 2.25712C62.6653 2.35744 62.4925 2.49676 62.3699 2.6751C62.2584 2.85345 62.2027 3.06522 62.2027 3.31044C62.2027 3.5891 62.2863 3.82874 62.4535 4.02938C62.6207 4.21886 62.8715 4.40278 63.2059 4.58112C63.5403 4.75946 63.9582 4.97124 64.4598 5.21645C65.0729 5.50626 65.5912 5.80721 66.0147 6.1193C66.4494 6.4314 66.7838 6.79922 67.0179 7.22278C67.252 7.64634 67.369 8.17022 67.369 8.79441Z" fill="white"></path><defs><linearGradient id="paint0_linear_455_17994" x1="4.11361" y1="2.96154" x2="26.0368" y2="26.9985" gradientUnits="userSpaceOnUse"><stop stop-color="#F09A3E"></stop><stop offset="1" stop-color="#F09A3E"></stop></linearGradient><linearGradient id="paint1_linear_455_17994" x1="4.11361" y1="2.96154" x2="26.0368" y2="26.9985" gradientUnits="userSpaceOnUse"><stop stop-color="#F09A3E"></stop><stop offset="1" stop-color="#F09A3E"></stop></linearGradient></defs></svg> 